<mxfile host="app.diagrams.net" agent="Mozilla/5.0 (Windows NT 10.0; Win64; x64) AppleWebKit/537.36 (KHTML, like Gecko) Chrome/135.0.0.0 Safari/537.36" version="26.1.1">
  <diagram name="Страница-1" id="XDXFd0y68O4hNVRGw4TV">
    <mxGraphModel dx="913" dy="1660" grid="1" gridSize="10" guides="1" tooltips="1" connect="1" arrows="1" fold="1" page="1" pageScale="1" pageWidth="827" pageHeight="1169" math="0" shadow="0">
      <root>
        <mxCell id="0" />
        <mxCell id="1" parent="0" />
        <mxCell id="6t3WRoYSTCvv0QFygyfa-1" value="&amp;lt;&amp;lt;device&amp;gt;&amp;gt;&lt;div&gt;Client(Console)&lt;/div&gt;" style="verticalAlign=top;align=left;spacingTop=8;spacingLeft=2;spacingRight=12;shape=cube;size=10;direction=south;fontStyle=4;html=1;whiteSpace=wrap;" parent="1" vertex="1">
          <mxGeometry x="430" y="-70" width="200" height="170" as="geometry" />
        </mxCell>
        <mxCell id="6t3WRoYSTCvv0QFygyfa-2" value="&amp;lt;&amp;lt;device&amp;gt;&amp;gt;&lt;div&gt;Server&lt;/div&gt;" style="verticalAlign=top;align=left;spacingTop=8;spacingLeft=2;spacingRight=12;shape=cube;size=10;direction=south;fontStyle=4;html=1;whiteSpace=wrap;" parent="1" vertex="1">
          <mxGeometry x="300" y="260" width="490" height="360" as="geometry" />
        </mxCell>
        <mxCell id="6t3WRoYSTCvv0QFygyfa-4" value="" style="shape=datastore;whiteSpace=wrap;html=1;" parent="1" vertex="1">
          <mxGeometry x="467" y="685" width="156" height="115" as="geometry" />
        </mxCell>
        <mxCell id="6t3WRoYSTCvv0QFygyfa-5" value="&lt;div&gt;&amp;lt;&amp;lt;device&amp;gt;&amp;gt;&lt;/div&gt;DatabaseServer" style="text;strokeColor=none;align=center;fillColor=none;html=1;verticalAlign=middle;whiteSpace=wrap;rounded=0;" parent="1" vertex="1">
          <mxGeometry x="505" y="740" width="80" height="30" as="geometry" />
        </mxCell>
        <mxCell id="6t3WRoYSTCvv0QFygyfa-7" value="" style="endArrow=classic;startArrow=classic;html=1;rounded=0;exitX=0.015;exitY=0.531;exitDx=0;exitDy=0;exitPerimeter=0;" parent="1" source="6t3WRoYSTCvv0QFygyfa-2" edge="1">
          <mxGeometry width="50" height="50" relative="1" as="geometry">
            <mxPoint x="160" y="190" as="sourcePoint" />
            <mxPoint x="530" y="100" as="targetPoint" />
          </mxGeometry>
        </mxCell>
        <mxCell id="6t3WRoYSTCvv0QFygyfa-8" value="WebSocket" style="text;strokeColor=none;align=center;fillColor=none;html=1;verticalAlign=middle;whiteSpace=wrap;rounded=0;" parent="1" vertex="1">
          <mxGeometry x="540" y="150" width="60" height="30" as="geometry" />
        </mxCell>
        <mxCell id="6t3WRoYSTCvv0QFygyfa-9" value="" style="endArrow=none;html=1;rounded=0;entryX=0;entryY=0;entryDx=360;entryDy=250;entryPerimeter=0;" parent="1" source="6t3WRoYSTCvv0QFygyfa-4" target="6t3WRoYSTCvv0QFygyfa-2" edge="1">
          <mxGeometry width="50" height="50" relative="1" as="geometry">
            <mxPoint x="170" y="400" as="sourcePoint" />
            <mxPoint x="220" y="350" as="targetPoint" />
          </mxGeometry>
        </mxCell>
        <mxCell id="6t3WRoYSTCvv0QFygyfa-10" value="TCP/IP" style="text;strokeColor=none;align=center;fillColor=none;html=1;verticalAlign=middle;whiteSpace=wrap;rounded=0;" parent="1" vertex="1">
          <mxGeometry x="540" y="640" width="60" height="30" as="geometry" />
        </mxCell>
        <mxCell id="6t3WRoYSTCvv0QFygyfa-18" value="&lt;p style=&quot;margin:0px;margin-top:6px;text-align:center;&quot;&gt;&lt;b&gt;Component&lt;/b&gt;&lt;/p&gt;&lt;hr size=&quot;1&quot; style=&quot;border-style:solid;&quot;&gt;&lt;p style=&quot;margin:0px;margin-left:8px;&quot;&gt;+ User interface&lt;br&gt;&lt;/p&gt;" style="align=left;overflow=fill;html=1;dropTarget=0;whiteSpace=wrap;" parent="1" vertex="1">
          <mxGeometry x="445" width="140" height="60" as="geometry" />
        </mxCell>
        <mxCell id="6t3WRoYSTCvv0QFygyfa-19" value="" style="shape=component;jettyWidth=8;jettyHeight=4;" parent="6t3WRoYSTCvv0QFygyfa-18" vertex="1">
          <mxGeometry x="1" width="20" height="20" relative="1" as="geometry">
            <mxPoint x="-24" y="4" as="offset" />
          </mxGeometry>
        </mxCell>
        <mxCell id="6t3WRoYSTCvv0QFygyfa-20" value="&lt;p style=&quot;margin:0px;margin-top:6px;text-align:center;&quot;&gt;&lt;b&gt;Component&lt;/b&gt;&lt;/p&gt;&lt;hr size=&quot;1&quot; style=&quot;border-style:solid;&quot;&gt;&lt;p style=&quot;margin:0px;margin-left:8px;&quot;&gt;+ ConnectDatabase&lt;br&gt;&lt;br&gt;&lt;/p&gt;" style="align=left;overflow=fill;html=1;dropTarget=0;whiteSpace=wrap;" parent="1" vertex="1">
          <mxGeometry x="360" y="310" width="180" height="60" as="geometry" />
        </mxCell>
        <mxCell id="6t3WRoYSTCvv0QFygyfa-21" value="" style="shape=component;jettyWidth=8;jettyHeight=4;" parent="6t3WRoYSTCvv0QFygyfa-20" vertex="1">
          <mxGeometry x="1" width="20" height="20" relative="1" as="geometry">
            <mxPoint x="-24" y="4" as="offset" />
          </mxGeometry>
        </mxCell>
        <mxCell id="6t3WRoYSTCvv0QFygyfa-22" value="&lt;p style=&quot;margin:0px;margin-top:6px;text-align:center;&quot;&gt;&lt;b&gt;Component&lt;/b&gt;&lt;/p&gt;&lt;hr size=&quot;1&quot; style=&quot;border-style:solid;&quot;&gt;&lt;p style=&quot;margin:0px;margin-left:8px;&quot;&gt;+ AdminRequests&lt;br&gt;&lt;/p&gt;" style="align=left;overflow=fill;html=1;dropTarget=0;whiteSpace=wrap;" parent="1" vertex="1">
          <mxGeometry x="360" y="430" width="180" height="90" as="geometry" />
        </mxCell>
        <mxCell id="6t3WRoYSTCvv0QFygyfa-23" value="" style="shape=component;jettyWidth=8;jettyHeight=4;" parent="6t3WRoYSTCvv0QFygyfa-22" vertex="1">
          <mxGeometry x="1" width="20" height="20" relative="1" as="geometry">
            <mxPoint x="-24" y="4" as="offset" />
          </mxGeometry>
        </mxCell>
        <mxCell id="6t3WRoYSTCvv0QFygyfa-24" value="&lt;p style=&quot;margin:0px;margin-top:6px;text-align:center;&quot;&gt;&lt;b&gt;Component&lt;/b&gt;&lt;/p&gt;&lt;hr size=&quot;1&quot; style=&quot;border-style:solid;&quot;&gt;&lt;p style=&quot;margin:0px;margin-left:8px;&quot;&gt;+ AuthenticationManager&lt;br&gt;&lt;/p&gt;" style="align=left;overflow=fill;html=1;dropTarget=0;whiteSpace=wrap;" parent="1" vertex="1">
          <mxGeometry x="570" y="360" width="180" height="90" as="geometry" />
        </mxCell>
        <mxCell id="6t3WRoYSTCvv0QFygyfa-25" value="" style="shape=component;jettyWidth=8;jettyHeight=4;" parent="6t3WRoYSTCvv0QFygyfa-24" vertex="1">
          <mxGeometry x="1" width="20" height="20" relative="1" as="geometry">
            <mxPoint x="-24" y="4" as="offset" />
          </mxGeometry>
        </mxCell>
        <mxCell id="dHyHsp6l3oaV8JTQX9rD-2" value="&lt;p style=&quot;margin:0px;margin-top:6px;text-align:center;&quot;&gt;&lt;b&gt;Component&lt;/b&gt;&lt;/p&gt;&lt;hr size=&quot;1&quot; style=&quot;border-style:solid;&quot;&gt;&lt;p style=&quot;margin:0px;margin-left:8px;&quot;&gt;+ ClientRequests&lt;br&gt;&lt;/p&gt;" style="align=left;overflow=fill;html=1;dropTarget=0;whiteSpace=wrap;" vertex="1" parent="1">
          <mxGeometry x="560" y="480" width="180" height="90" as="geometry" />
        </mxCell>
        <mxCell id="dHyHsp6l3oaV8JTQX9rD-3" value="" style="shape=component;jettyWidth=8;jettyHeight=4;" vertex="1" parent="dHyHsp6l3oaV8JTQX9rD-2">
          <mxGeometry x="1" width="20" height="20" relative="1" as="geometry">
            <mxPoint x="-24" y="4" as="offset" />
          </mxGeometry>
        </mxCell>
      </root>
    </mxGraphModel>
  </diagram>
</mxfile>
